<svg width="283" height="103" viewBox="0 0 283 103" fill="none" xmlns="http://www.w3.org/2000/svg">
<path d="M6.85954 18.0151V96.3704M6.85954 18.0151L12.7191 23.8747M6.85954 18.0151L1 23.8747M6.85954 96.3704H255.158M6.85954 96.3704L27.848 67.8577L47.6932 82.287L79.1882 49.1439L151.334 82.287L222.564 34.312M255.158 96.3704L250.405 91.8823M255.158 96.3704L250.405 101.519M222.564 34.312V49.3271M222.564 34.312H207.915" stroke="#BEBEBE" stroke-width="1.46488"/>
<g filter="url(#filter0_d_3_306)">
<rect x="247.29" y="20.1912" width="11.4036" height="14.2131" transform="rotate(-10.1698 247.29 20.1912)" fill="#FFCC9C"/>
<rect x="257.153" y="18.4219" width="1.3653" height="14.2131" transform="rotate(-10.1698 257.153 18.4219)" fill="#EBB583"/>
<rect x="237.389" y="12.7324" width="28.261" height="14.2131" transform="rotate(-10.1698 237.389 12.7324)" fill="#FFDEBF"/>
<path d="M236.601 8.34009L264.418 3.35015L265.41 8.88101L238.18 17.1436L237.593 13.871L236.601 8.34009Z" fill="#3D3D3D"/>
<rect x="261.75" y="9.5376" width="3.84809" height="13.0563" transform="rotate(-10.1698 261.75 9.5376)" fill="#E4C0A0"/>
<path d="M260.511 4.05103L264.418 3.35018L265.41 8.88104L261.586 10.04L260.511 4.05103Z" fill="#222222"/>
<rect x="238.53" y="30.3257" width="32.2275" height="32.558" transform="rotate(-10.1698 238.53 30.3257)" fill="white"/>
<rect x="238.53" y="30.3257" width="9.0898" height="32.558" transform="rotate(-10.1698 238.53 30.3257)" fill="#4B9FC8"/>
<rect x="261.304" y="26.2405" width="9.0898" height="32.558" transform="rotate(-10.1698 261.304 26.2405)" fill="#4B9FC8"/>
<rect x="248.959" y="14.5186" width="1.65269" height="3.30538" transform="rotate(-10.1698 248.959 14.5186)" fill="black"/>
<rect x="267.895" y="24.9929" width="2.59614" height="32.558" transform="rotate(-10.1698 267.895 24.9929)" fill="#14709C"/>
<rect x="253.677" y="13.6724" width="1.65269" height="3.30538" transform="rotate(-10.1698 253.677 13.6724)" fill="black"/>
<rect x="250.893" y="28.1082" width="6.9413" height="2.97484" transform="rotate(-10.1698 250.893 28.1082)" fill="#FF6F6F"/>
<rect width="3.11956" height="2.97484" transform="matrix(-0.984289 0.176566 0.176566 0.984289 257.719 26.8838)" fill="#AF0000"/>
</g>
<g filter="url(#filter1_d_3_306)">
<path d="M46.4559 24.0894L48.3868 23.572L48.9041 25.5029L46.9733 26.0203L46.4559 24.0894ZM46.9733 26.0203L48.9041 25.5029L49.4215 27.4337L47.4907 27.9511L46.9733 26.0203ZM44.5251 24.6068L46.4559 24.0894L46.9733 26.0203L45.0424 26.5376L44.5251 24.6068ZM45.0424 26.5376L46.9733 26.0203L47.4907 27.9511L45.5598 28.4685L45.0424 26.5376ZM44.0077 22.6759L45.9386 22.1586L46.4559 24.0894L44.5251 24.6068L44.0077 22.6759ZM42.0768 23.1933L44.0077 22.6759L44.5251 24.6068L42.5942 25.1241L42.0768 23.1933ZM40.6634 25.6415L42.5942 25.1241L43.1116 27.055L41.1807 27.5724L40.6634 25.6415ZM42.5942 25.1241L44.5251 24.6068L45.0424 26.5376L43.1116 27.055L42.5942 25.1241ZM40.146 23.7107L42.0768 23.1933L42.5942 25.1241L40.6634 25.6415L40.146 23.7107ZM38.2151 24.228L40.146 23.7107L40.6634 25.6415L38.7325 26.1589L38.2151 24.228ZM36.2843 24.7454L38.2151 24.228L38.7325 26.1589L36.8017 26.6763L36.2843 24.7454ZM36.8017 26.6763L38.7325 26.1589L39.2499 28.0897L37.319 28.6071L36.8017 26.6763ZM38.7325 26.1589L40.6634 25.6415L41.1807 27.5724L39.2499 28.0897L38.7325 26.1589ZM34.8708 27.1936L36.8017 26.6763L37.319 28.6071L35.3882 29.1245L34.8708 27.1936ZM35.3882 29.1245L37.319 28.6071L37.8364 30.538L35.9056 31.0553L35.3882 29.1245ZM35.9056 31.0553L37.8364 30.538L38.3538 32.4688L36.4229 32.9862L35.9056 31.0553ZM36.4229 32.9862L38.3538 32.4688L38.8711 34.3997L36.9403 34.917L36.4229 32.9862ZM38.3538 32.4688L40.2846 31.9514L40.802 33.8823L38.8711 34.3997L38.3538 32.4688ZM37.8364 30.538L39.7673 30.0206L40.2846 31.9514L38.3538 32.4688L37.8364 30.538ZM37.319 28.6071L39.2499 28.0897L39.7673 30.0206L37.8364 30.538L37.319 28.6071ZM38.8711 34.3997L40.802 33.8823L41.3194 35.8131L39.3885 36.3305L38.8711 34.3997ZM40.802 33.8823L42.7328 33.3649L43.2502 35.2958L41.3194 35.8131L40.802 33.8823ZM42.7328 33.3649L44.6637 32.8475L45.1811 34.7784L43.2502 35.2958L42.7328 33.3649ZM44.6637 32.8475L46.5945 32.3302L47.1119 34.261L45.1811 34.7784L44.6637 32.8475ZM44.1463 30.9167L46.0772 30.3993L46.5945 32.3302L44.6637 32.8475L44.1463 30.9167ZM46.0772 30.3993L48.008 29.882L48.5254 31.8128L46.5945 32.3302L46.0772 30.3993ZM42.2155 31.4341L44.1463 30.9167L44.6637 32.8475L42.7328 33.3649L42.2155 31.4341ZM40.2846 31.9514L42.2155 31.4341L42.7328 33.3649L40.802 33.8823L40.2846 31.9514ZM46.5945 32.3302L48.5254 31.8128L49.0428 33.7437L47.1119 34.261L46.5945 32.3302ZM48.5254 31.8128L50.4563 31.2954L50.9736 33.2263L49.0428 33.7437L48.5254 31.8128ZM49.0428 33.7437L50.9736 33.2263L51.491 35.1571L49.5601 35.6745L49.0428 33.7437ZM49.5601 35.6745L51.491 35.1571L52.0084 37.088L50.0775 37.6054L49.5601 35.6745ZM47.6293 36.1919L49.5601 35.6745L50.0775 37.6054L48.1467 38.1227L47.6293 36.1919ZM47.1119 34.261L49.0428 33.7437L49.5601 35.6745L47.6293 36.1919L47.1119 34.261ZM48.1467 38.1227L50.0775 37.6054L50.5949 39.5362L48.664 40.0536L48.1467 38.1227ZM50.0775 37.6054L52.0084 37.088L52.5257 39.0188L50.5949 39.5362L50.0775 37.6054ZM48.664 40.0536L50.5949 39.5362L51.1122 41.4671L49.1814 41.9844L48.664 40.0536ZM46.7332 40.5709L48.664 40.0536L49.1814 41.9844L47.2505 42.5018L46.7332 40.5709ZM44.8023 41.0883L46.7332 40.5709L47.2505 42.5018L45.3197 43.0192L44.8023 41.0883ZM44.285 39.1575L46.2158 38.6401L46.7332 40.5709L44.8023 41.0883L44.285 39.1575ZM46.2158 38.6401L48.1467 38.1227L48.664 40.0536L46.7332 40.5709L46.2158 38.6401ZM42.3541 39.6748L44.285 39.1575L44.8023 41.0883L42.8715 41.6057L42.3541 39.6748ZM42.8715 41.6057L44.8023 41.0883L45.3197 43.0192L43.3888 43.5365L42.8715 41.6057ZM40.9406 42.1231L42.8715 41.6057L43.3888 43.5365L41.458 44.0539L40.9406 42.1231ZM40.4233 40.1922L42.3541 39.6748L42.8715 41.6057L40.9406 42.1231L40.4233 40.1922ZM39.9059 38.2614L41.8367 37.744L42.3541 39.6748L40.4233 40.1922L39.9059 38.2614ZM37.975 38.7787L39.9059 38.2614L40.4233 40.1922L38.4924 40.7096L37.975 38.7787ZM38.4924 40.7096L40.4233 40.1922L40.9406 42.1231L39.0098 42.6404L38.4924 40.7096ZM45.3197 43.0192L47.2505 42.5018L47.7679 44.4327L45.8371 44.95L45.3197 43.0192ZM43.7676 37.2266L45.6984 36.7092L46.2158 38.6401L44.285 39.1575L43.7676 37.2266ZM43.2502 35.2958L45.1811 34.7784L45.6984 36.7092L43.7676 37.2266L43.2502 35.2958ZM41.6981 29.5032L43.629 28.9858L44.1463 30.9167L42.2155 31.4341L41.6981 29.5032ZM41.1807 27.5724L43.1116 27.055L43.629 28.9858L41.6981 29.5032L41.1807 27.5724ZM39.6286 21.7798L41.5595 21.2624L42.0768 23.1933L40.146 23.7107L39.6286 21.7798Z" fill="#00A671"/>
</g>
<g filter="url(#filter2_d_3_306)">
<path d="M105.518 26.4179L107.01 26.8175L106.61 28.3087L105.119 27.9091L105.518 26.4179ZM107.01 26.8175L108.501 27.217L108.101 28.7083L106.61 28.3087L107.01 26.8175ZM106.61 28.3087L108.101 28.7083L107.702 30.1995L106.21 29.7999L106.61 28.3087ZM104.719 29.4003L106.21 29.7999L105.811 31.2911L104.32 30.8916L104.719 29.4003ZM104.32 30.8916L105.811 31.2911L105.411 32.7823L103.92 32.3828L104.32 30.8916ZM105.811 31.2911L107.302 31.6907L106.902 33.1819L105.411 32.7823L105.811 31.2911ZM106.21 29.7999L107.702 30.1995L107.302 31.6907L105.811 31.2911L106.21 29.7999ZM105.411 32.7823L106.902 33.1819L106.503 34.6731L105.012 34.2736L105.411 32.7823ZM106.902 33.1819L108.394 33.5815L107.994 35.0727L106.503 34.6731L106.902 33.1819ZM107.302 31.6907L108.793 32.0903L108.394 33.5815L106.902 33.1819L107.302 31.6907ZM106.503 34.6731L107.994 35.0727L107.595 36.5639L106.103 36.1643L106.503 34.6731ZM107.994 35.0727L109.485 35.4723L109.086 36.9635L107.595 36.5639L107.994 35.0727ZM108.394 33.5815L109.885 33.981L109.485 35.4723L107.994 35.0727L108.394 33.5815ZM109.885 33.981L111.376 34.3806L110.977 35.8718L109.485 35.4723L109.885 33.981ZM109.485 35.4723L110.977 35.8718L110.577 37.363L109.086 36.9635L109.485 35.4723ZM110.977 35.8718L112.468 36.2714L112.068 37.7626L110.577 37.363L110.977 35.8718ZM111.376 34.3806L112.867 34.7802L112.468 36.2714L110.977 35.8718L111.376 34.3806ZM111.776 32.8894L113.267 33.289L112.867 34.7802L111.376 34.3806L111.776 32.8894ZM113.267 33.289L114.758 33.6885L114.359 35.1798L112.867 34.7802L113.267 33.289ZM112.867 34.7802L114.359 35.1798L113.959 36.671L112.468 36.2714L112.867 34.7802ZM113.666 31.7978L115.158 32.1973L114.758 33.6885L113.267 33.289L113.666 31.7978ZM114.466 28.8153L115.957 29.2149L115.557 30.7061L114.066 30.3065L114.466 28.8153ZM115.957 29.2149L117.448 29.6145L117.048 31.1057L115.557 30.7061L115.957 29.2149ZM115.557 30.7061L117.048 31.1057L116.649 32.5969L115.158 32.1973L115.557 30.7061ZM115.158 32.1973L116.649 32.5969L116.249 34.0881L114.758 33.6885L115.158 32.1973ZM114.758 33.6885L116.249 34.0881L115.85 35.5793L114.359 35.1798L114.758 33.6885ZM107.195 38.0551L108.686 38.4547L108.287 39.9459L106.795 39.5463L107.195 38.0551ZM106.795 39.5463L108.287 39.9459L107.887 41.4371L106.396 41.0376L106.795 39.5463ZM106.396 41.0376L107.887 41.4371L107.487 42.9283L105.996 42.5288L106.396 41.0376ZM107.887 41.4371L109.378 41.8367L108.979 43.3279L107.487 42.9283L107.887 41.4371ZM108.287 39.9459L109.778 40.3455L109.378 41.8367L107.887 41.4371L108.287 39.9459ZM108.686 38.4547L110.177 38.8543L109.778 40.3455L108.287 39.9459L108.686 38.4547ZM105.119 27.9091L106.61 28.3087L106.21 29.7999L104.719 29.4003L105.119 27.9091ZM114.066 30.3065L115.557 30.7061L115.158 32.1973L113.666 31.7978L114.066 30.3065ZM107.595 36.5639L109.086 36.9635L108.686 38.4547L107.195 38.0551L107.595 36.5639ZM109.086 36.9635L110.577 37.363L110.177 38.8543L108.686 38.4547L109.086 36.9635ZM104.612 35.7648L106.103 36.1643L105.704 37.6556L104.213 37.256L104.612 35.7648ZM106.103 36.1643L107.595 36.5639L107.195 38.0551L105.704 37.6556L106.103 36.1643ZM110.577 37.363L112.068 37.7626L111.669 39.2538L110.177 38.8543L110.577 37.363ZM112.068 37.7626L113.559 38.1622L113.16 39.6534L111.669 39.2538L112.068 37.7626ZM103.813 38.7472L105.304 39.1468L104.905 40.638L103.413 40.2384L103.813 38.7472ZM105.304 39.1468L106.795 39.5463L106.396 41.0376L104.905 40.638L105.304 39.1468ZM109.778 40.3455L111.269 40.7451L110.869 42.2363L109.378 41.8367L109.778 40.3455ZM111.269 40.7451L112.76 41.1446L112.361 42.6358L110.869 42.2363L111.269 40.7451Z" fill="#00A671"/>
</g>
<defs>
<filter id="filter0_d_3_306" x="228.863" y="-0.222747" width="53.8547" height="71.6771" filterUnits="userSpaceOnUse" color-interpolation-filters="sRGB">
<feFlood flood-opacity="0" result="BackgroundImageFix"/>
<feColorMatrix in="SourceAlpha" type="matrix" values="0 0 0 0 0 0 0 0 0 0 0 0 0 0 0 0 0 0 127 0" result="hardAlpha"/>
<feOffset dx="0.366221" dy="2.92977"/>
<feGaussianBlur stdDeviation="3.07626"/>
<feComposite in2="hardAlpha" operator="out"/>
<feColorMatrix type="matrix" values="0 0 0 0 0 0 0 0 0 0 0 0 0 0 0 0 0 0 0.25 0"/>
<feBlend mode="normal" in2="BackgroundImageFix" result="effect1_dropShadow_3_306"/>
<feBlend mode="normal" in="SourceGraphic" in2="effect1_dropShadow_3_306" result="shape"/>
</filter>
<filter id="filter1_d_3_306" x="33.8361" y="19.7104" width="19.7244" height="27.8556" filterUnits="userSpaceOnUse" color-interpolation-filters="sRGB">
<feFlood flood-opacity="0" result="BackgroundImageFix"/>
<feColorMatrix in="SourceAlpha" type="matrix" values="0 0 0 0 0 0 0 0 0 0 0 0 0 0 0 0 0 0 127 0" result="hardAlpha"/>
<feOffset dy="1.06387"/>
<feComposite in2="hardAlpha" operator="out"/>
<feColorMatrix type="matrix" values="0 0 0 0 0.00559997 0 0 0 0 0.24 0 0 0 0 0.166884 0 0 0 1 0"/>
<feBlend mode="normal" in2="BackgroundImageFix" result="effect1_dropShadow_3_306"/>
<feBlend mode="normal" in="SourceGraphic" in2="effect1_dropShadow_3_306" result="shape"/>
</filter>
<filter id="filter2_d_3_306" x="101.523" y="26.418" width="15.9254" height="18.9303" filterUnits="userSpaceOnUse" color-interpolation-filters="sRGB">
<feFlood flood-opacity="0" result="BackgroundImageFix"/>
<feColorMatrix in="SourceAlpha" type="matrix" values="0 0 0 0 0 0 0 0 0 0 0 0 0 0 0 0 0 0 127 0" result="hardAlpha"/>
<feOffset dy="0.82164"/>
<feComposite in2="hardAlpha" operator="out"/>
<feColorMatrix type="matrix" values="0 0 0 0 0.00559997 0 0 0 0 0.24 0 0 0 0 0.166884 0 0 0 1 0"/>
<feBlend mode="normal" in2="BackgroundImageFix" result="effect1_dropShadow_3_306"/>
<feBlend mode="normal" in="SourceGraphic" in2="effect1_dropShadow_3_306" result="shape"/>
</filter>
</defs>
</svg>
